<?xml version="1.0" encoding="utf-8" ?><svg xmlns="http://www.w3.org/2000/svg" xmlns:xlink="http://www.w3.org/1999/xlink" width="1024" height="1024" viewBox="0 0 1024 1024"><path d="M433.303 222.283C449.356 219.484 445.756 233.139 445.82 243.508C445.87 251.555 445.711 259.747 445.865 267.757C445.913 270.259 445.045 285.629 447.422 286.208C454.291 287.881 462.429 282.031 468.833 289.339C469.586 291.511 469.473 293.36 469.199 295.625C467.838 306.839 463.729 318.804 460.368 329.576C449.63 363.983 438.587 388.142 414.964 415.794C405.264 427.149 395.371 437.029 383.516 446.153C374.232 453.298 363.636 460.028 353.185 465.348C345.493 469.263 337.396 472.646 329.368 475.8C321.195 479.012 271.464 496.962 266.56 495.504C265.163 495.088 262.982 493.266 262.185 492.073C258.428 486.446 238.761 450.02 240.489 444.39C241.013 442.686 242.364 441.514 244.016 440.977C248.628 439.477 253.774 439.843 258.531 438.878C270.971 436.354 290.439 430.693 302.126 425.521C311.057 423.271 361.09 396.012 359.409 387.093C358.27 386.033 357.688 385.482 356.852 384.121C350.527 381.545 337.573 378.199 330.389 375.846L297.233 364.8C292.893 363.347 287.787 360.792 283.273 360.313C278.143 359.769 255.082 381.665 249.86 385.777C247.783 385.467 246.54 385.385 244.433 385.293C235.12 375.986 226.09 366.187 217.987 355.83C215.683 352.885 210.901 347.892 214.699 344.592C219.147 340.727 224.195 337.423 228.881 333.817C236.508 327.949 243.023 321.455 249.41 314.274C264.303 298.044 277.38 276.274 285.817 255.989C287.282 252.198 288.491 248.361 289.634 244.472C290.732 240.733 289.468 234.64 294.707 234.535C304.476 234.338 314.255 234.541 324.03 234.54L387.619 234.52C393.709 234.523 401.498 234.681 407.677 234.266C410.906 233.497 410.178 225.427 412.221 223.988C416.606 220.901 427.695 222.94 433.303 222.283ZM386.9 341.774C388.703 342.233 389.982 342.79 391.732 342.293C396.927 337.529 407.078 296.426 407.856 287.854C402.459 286.599 393.931 286.959 388.126 286.95L361.533 286.93C356.776 286.93 338.291 286.639 334.357 287.266C331.988 287.706 332.197 287.264 330.752 289.277C327.583 293.693 325.884 298.711 323.403 303.4C321.019 307.906 314.825 314.882 313.844 319.811C315.546 322.942 323.621 324.711 327.012 325.71C332.509 327.329 386.029 341.88 386.9 341.774Z"/><path d="M380.032 510.901C381.835 511.206 384.285 514.488 385.349 515.895C385.404 521.135 386.609 537.324 386.008 540.606C394.018 541.606 405.644 541.336 413.957 541.351L455.102 541.366C460.944 541.34 466.876 540.737 472.608 541.119C478.637 541.522 479.724 543.299 483.289 547.659C482.941 558.324 484.492 581.7 482.648 591.307C481.614 592.993 479.77 593.874 478.053 594.946C467.33 594.998 388.151 594.48 386.684 595.711C385.184 599.592 385.6 604.162 385.564 608.283C385.421 624.309 384.383 638.947 385.352 655.028C386.6 675.75 383.417 697.24 384.377 718.127C384.871 728.862 383.991 740.024 384.779 750.819C385.375 770.603 384.092 769.309 365.767 768.975C354.1 768.763 342.505 769.545 331.048 767.771C327.637 767.522 326.561 764.36 326.458 761.471C326.251 755.676 326.442 749.76 326.501 743.963L326.553 713.693C326.596 687.146 325.631 660.606 325.928 634C326.028 625.014 326.703 604.125 325.186 596.712C324.474 593.237 268.378 595.836 262.339 595.087C249.093 593.727 225.456 600.696 225.9 587.519C226.325 574.91 224.371 557.243 225.892 544.496C226.489 539.495 245.406 541.472 248.849 541.112C269.541 541.186 290.191 541.306 310.875 541.227C314.702 541.213 322.264 541.604 325.485 539.833C327.166 536.775 326.776 519.728 326.874 514.869C327.77 513.921 330.049 511.466 331.267 511.292C337.267 510.433 343.984 510.831 350.039 510.878C360.036 510.999 370.035 511.007 380.032 510.901Z"/><path d="M716.476 236.588C723.383 235.929 755.348 235.503 760.227 238.115C763.483 239.859 766.076 242.834 766.953 246.462C770.874 262.689 724.737 310.182 711.747 322.076C705.244 328.031 689.929 338.64 685.781 345.23L685.35 345.929L685.622 443.323C685.631 451.158 686.417 478.202 685.316 484.265C684.091 485.658 682.673 487.029 681.363 488.356C666.632 489.559 648.936 489.068 634.061 488.269C630.649 488.086 628.938 485.192 627.138 482.575C627.897 475.598 627.481 460.125 627.487 452.315L627.491 396.278C627.473 391.775 627.923 380.769 624.989 377.866C622.798 377.627 622.739 378.116 620.366 379.171C589.18 393.172 556.686 404.057 523.358 411.665C517.182 413.076 507.581 415.498 501.553 416.199C497.612 414.416 496.124 414.115 495.873 409.275C495.611 404.204 495.965 399.153 495.982 394.071C495.934 383.612 495.946 373.153 496.02 362.694C497.15 361.421 499.197 359.232 500.845 358.758C512.571 355.38 524.539 353.6 536.266 350.029C575.894 337.962 614.784 322.374 649.638 299.735C660.164 292.899 670.62 286.24 680.277 278.035C691.775 267.946 701.87 255.84 709.758 242.741C711.511 239.826 713.204 237.25 716.476 236.588Z"/><path d="M736.566 550.625C737.254 550.534 738.215 550.335 738.836 550.675C752.881 558.37 768.461 562.105 782.885 568.895C785.402 570.08 785.757 570.855 787.41 573.088C787.839 580.023 786.221 586.061 784.804 592.792C779.032 620.212 767.173 646.556 750.973 669.32C715.755 718.809 654.041 750.001 594.915 759.65C591.331 760.235 586.856 760.564 583.509 761.341L582.62 761.554C578.915 761.65 571.564 762.502 567.705 762.942C557.859 764.063 550.427 764.479 540.601 764.453L536.258 761.578C533.193 755.219 535.795 733.027 534.812 724.817C534.347 720.933 534.122 714.368 533.851 710.546C533.554 706.353 543.728 704.407 546.73 704.551C555.206 704.217 564.987 703.973 573.518 702.837C603.748 698.817 632.526 689.155 658.83 673.687C691.97 654.201 714.938 620.129 725.559 583.644C728.442 573.742 730.717 564.292 732.231 554.057C732.484 552.351 735.148 551.328 736.566 550.625Z"/><path d="M450.724 615.733C461.56 613.067 460.175 627.185 460.809 633.337C461.316 638.099 462.135 642.822 463.262 647.476C467.57 665.971 471.219 678.948 481.289 695.375C487.133 704.907 493.212 712.722 499.425 721.823C499.415 723.703 499.218 725.706 499.081 727.591C489.461 734.037 467.288 750.272 457.533 754.789C456.076 754.297 455.754 753.992 454.478 753.159C449.189 748.749 443.497 740.032 439.576 734.108C421.256 706.061 410.3 672.055 404.427 639.239C403.802 635.748 400.241 622.928 404.752 621.455C413.258 618.678 444.608 620.076 450.724 615.733Z"/><path d="M253.005 617.439C257.66 617.307 268.362 618.264 273.2 618.949C281.408 620.11 300.575 619.301 307.547 622.181C309.59 625.534 305.42 640.83 304.639 645.232C297.555 685.157 285.096 715.456 260.925 748.166L259.324 750.142C257.079 752.947 252.945 755.668 249.897 753.279C245.231 749.621 211.413 727.803 210.585 725.645C211.285 721.474 214.182 718.256 216.572 714.767C228.154 698.119 237.33 679.921 243.83 660.71C247.02 651.548 248.631 641.58 250.498 632.07C251.416 627.393 250.414 621.446 253.005 617.439Z"/><path d="M547.714 519.418C554.297 520.004 559.28 523.069 565.174 525.709L587.18 535.616C597.071 540.073 637.995 556.752 643.63 562.851C645.295 569.634 622.065 601.379 615.78 605.627C610.711 606.83 607.243 603.821 602.868 601.326C583.238 590.134 562.62 580.735 542.259 570.987C537.614 568.763 522.869 563.538 520.61 560.568C520.349 559.125 520.387 555.898 521.193 554.893C525.01 550.131 544.462 520.805 547.714 519.418Z"/><path d="M466.699 222.759C473.245 222.955 478.934 222.413 485.24 222.867C487.745 223.047 488.612 224.402 489.986 226.288C490.29 232.762 491.758 271.168 488.384 274.572C486.714 276.257 483.862 276.548 481.625 276.554C475.059 276.464 467.45 277.502 461.149 276.179C457.576 275.429 456.948 273.799 455.143 270.884C456.674 262.602 456.071 237.064 456.049 227.135C457.122 225.772 457.807 224.623 458.724 223.145C461.353 222.944 464.06 222.869 466.699 222.759Z"/></svg>